PathFileType   4   (X/Y/Z)
DataRate  CameraRate  NumFrames  NumMarkers  Units  OrigDataRate  OrigDataStartFrame  OrigNumFrames  
  120.0      120.0        8         37         mm      120.0          34        134
Frame#      Time                    midhip                           hip_r                           hip_l                          knee_r                          knee_l                         ankle_r                         ankle_l                         midasis                          asis_r                          asis_l                          psis_r                          psis_l                    epicondLat_r                    epicondLat_l                    epicondMed_r                    epicondMed_l                  malleolusLat_r                  malleolusLat_l                 malleolusMedv_r                 malleolusMedv_l                    sternalnotch                  xyphoidprocess                            neck                           toe_r                           toe_l                     thighwand_r                     thighwand_l                     upperleg1_r                     upperleg1_l                     upperleg2_r                     upperleg2_l                     shankwand_r                     shankwand_l                     lowerleg1_r                     lowerleg1_l                   subclavicle_r                   subclavicle_l            
              X1          Y1          Z1          X2          Y2          Z2          X3          Y3          Z3          X4          Y4          Z4          X5          Y5          Z5          X6          Y6          Z6          X7          Y7          Z7          X8          Y8          Z8          X9          Y9          Z9          X10          Y10          Z10          X11          Y11          Z11          X12          Y12          Z12          X13          Y13          Z13          X14          Y14          Z14          X15          Y15          Z15          X16          Y16          Z16          X17          Y17          Z17          X18          Y18          Z18          X19          Y19          Z19          X20          Y20          Z20          X21          Y21          Z21          X22          Y22          Z22          X23          Y23          Z23          X24          Y24          Z24          X25          Y25          Z25          X26          Y26          Z26          X27          Y27          Z27          X28          Y28          Z28          X29          Y29          Z29          X30          Y30          Z30          X31          Y31          Z31          X32          Y32          Z32          X33          Y33          Z33          X34          Y34          Z34          X35          Y35          Z35          X36          Y36          Z36          X37          Y37          Z37          

	34	0.42500	1595.997	769.557	-256.758	1589.704	769.399	-199.677	1602.290	769.716	-313.840	1673.787	424.827	-161.328	1524.312	426.725	-287.941	1601.622	86.500	-153.424	1486.798	67.251	-262.423	1629.301	842.919	-253.546	1632.369	848.933	-143.368	1626.234	836.906	-363.723	1453.169	870.819	-213.904	1456.434	867.375	-267.015	1693.920	433.906	-101.739	1544.165	410.529	-345.406	1690.511	422.586	-219.811	1555.844	421.045	-229.625	1592.600	89.492	-117.149	1476.601	66.366	-297.458	1605.059	80.140	-186.485	1487.488	71.582	-229.137	1625.232	1194.779	-266.670	1635.129	1093.085	-268.353	1516.073	1264.039	-268.912	1677.179	64.930	-139.371	1572.484	45.355	-275.681	1766.117	605.483	-138.304	1661.557	554.089	-380.030	1703.108	624.411	-105.623	1649.593	603.433	-314.964	1712.099	567.324	-106.818	1637.434	548.072	-303.474	1740.337	179.935	-119.446	1483.911	160.453	-394.110	1664.050	181.225	-144.987	1491.837	156.851	-316.913	1624.210	1195.172	-210.271	1631.483	1195.004	-316.541
	35	0.43333	1601.980	769.348	-257.006	1595.617	769.247	-199.933	1608.343	769.449	-314.080	1684.096	424.523	-161.990	1528.372	427.106	-287.919	1623.359	83.817	-155.248	1487.250	67.574	-262.422	1635.293	842.674	-253.807	1638.231	848.828	-143.600	1632.354	836.520	-364.014	1459.443	870.604	-214.450	1462.382	867.115	-267.400	1702.255	434.336	-102.402	1547.020	410.429	-345.373	1701.441	422.859	-220.813	1560.049	419.316	-232.028	1614.235	86.342	-118.963	1477.000	66.775	-297.444	1627.118	77.965	-188.383	1488.201	71.967	-229.177	1631.781	1194.316	-266.757	1641.501	1092.603	-268.264	1522.723	1263.756	-268.674	1699.862	64.136	-140.836	1572.685	45.367	-275.643	1772.644	606.264	-138.401	1665.970	553.213	-380.238	1708.757	624.695	-106.065	1654.548	602.274	-314.816	1719.040	567.690	-107.333	1642.210	547.174	-304.181	1758.511	182.644	-120.961	1484.821	160.761	-394.096	1682.400	181.065	-146.355	1493.012	157.204	-317.018	1630.599	1194.796	-210.162	1638.176	1194.456	-316.812
	36	0.44167	1607.989	769.107	-257.262	1601.562	769.039	-200.195	1614.417	769.176	-314.328	1692.863	424.384	-162.752	1530.157	428.478	-287.897	1645.011	81.542	-157.104	1487.682	67.923	-262.460	1641.322	842.390	-254.029	1644.134	848.639	-143.785	1638.510	836.141	-364.273	1465.634	870.412	-214.896	1468.470	866.796	-267.765	1710.296	434.659	-103.119	1549.844	410.368	-345.391	1710.731	423.727	-222.786	1561.300	420.058	-232.558	1635.850	83.588	-120.798	1477.356	67.213	-297.462	1649.347	75.232	-190.037	1488.891	72.261	-229.246	1638.349	1193.722	-267.253	1647.902	1092.000	-269.176	1529.163	1263.480	-268.435	1722.479	63.632	-142.409	1572.912	45.411	-275.632	1778.991	606.870	-138.577	1670.350	552.299	-380.416	1714.150	624.761	-106.271	1659.727	601.330	-315.130	1725.386	567.724	-107.972	1646.138	546.000	-304.437	1776.422	185.652	-122.634	1485.628	161.122	-394.090	1700.551	180.092	-147.894	1494.156	157.636	-316.999	1637.200	1193.975	-210.655	1644.716	1194.053	-317.312
	37	0.45000	1614.013	768.815	-257.484	1607.523	768.767	-200.424	1620.504	768.863	-314.544	1696.721	425.142	-163.566	1531.503	430.089	-287.945	1666.550	79.668	-158.950	1488.084	68.286	-262.530	1647.394	842.056	-254.199	1650.077	848.364	-143.916	1644.711	835.749	-364.482	1471.709	870.240	-215.234	1474.679	866.449	-268.113	1718.026	434.874	-103.912	1552.646	410.349	-345.460	1714.451	425.446	-225.382	1562.287	421.897	-232.008	1657.397	81.238	-122.618	1477.659	67.669	-297.505	1671.179	73.162	-191.734	1489.365	72.447	-229.291	1644.876	1193.089	-267.947	1654.169	1091.349	-270.168	1535.743	1263.189	-268.525	1744.985	63.445	-144.073	1573.156	45.474	-275.658	1785.144	607.281	-138.829	1674.683	551.353	-380.574	1720.503	624.823	-106.087	1665.123	600.617	-315.814	1731.055	567.598	-108.604	1650.017	544.917	-304.596	1794.004	188.938	-124.385	1486.334	161.536	-394.089	1718.451	179.229	-149.066	1495.028	157.875	-316.887	1643.782	1193.185	-211.510	1651.194	1193.547	-317.847
	38	0.45833	1620.039	768.462	-257.626	1613.479	768.438	-200.575	1626.598	768.487	-314.678	1699.472	425.776	-164.382	1532.448	432.267	-288.068	1687.930	78.179	-160.755	1488.460	68.655	-262.630	1653.509	841.662	-254.313	1656.057	847.999	-144.001	1650.961	835.326	-364.626	1477.695	870.082	-215.492	1480.961	866.105	-268.438	1725.435	434.972	-104.796	1555.435	410.368	-345.577	1716.583	425.812	-225.441	1563.121	424.373	-230.912	1678.804	79.287	-124.400	1477.918	68.136	-297.571	1692.506	72.693	-193.755	1489.631	72.630	-229.328	1651.338	1192.526	-268.144	1660.485	1090.771	-270.303	1542.280	1262.802	-268.883	1767.318	63.600	-145.805	1573.399	45.545	-275.725	1791.121	607.478	-139.142	1678.954	550.385	-380.735	1727.473	624.943	-106.044	1670.705	599.893	-316.351	1736.881	567.483	-108.687	1653.931	544.085	-304.534	1811.193	192.463	-126.124	1486.956	161.993	-394.098	1736.112	180.309	-150.382	1495.647	158.092	-316.742	1650.198	1192.651	-212.073	1657.696	1192.948	-317.671
	39	0.46667	1626.084	768.045	-257.674	1619.447	768.045	-200.631	1632.721	768.044	-314.716	1704.443	425.394	-165.295	1534.182	433.789	-288.316	1709.098	77.058	-162.506	1488.824	69.025	-262.756	1659.667	841.208	-254.375	1662.073	847.544	-144.054	1657.261	834.872	-364.697	1483.639	869.922	-215.700	1487.287	865.781	-268.721	1732.522	434.942	-105.773	1558.215	410.422	-345.738	1721.447	424.410	-223.831	1565.305	426.680	-229.141	1699.992	77.726	-126.135	1478.151	68.610	-297.658	1713.645	72.654	-195.727	1490.159	72.847	-229.452	1657.811	1192.032	-267.864	1667.130	1090.297	-270.181	1548.493	1262.245	-269.185	1789.395	64.114	-147.578	1573.626	45.617	-275.833	1796.967	607.443	-139.488	1683.156	549.407	-380.920	1733.869	624.618	-106.624	1676.057	599.116	-316.908	1742.856	567.331	-108.650	1658.169	543.692	-304.414	1827.928	196.168	-127.766	1487.528	162.485	-394.126	1753.531	181.865	-151.754	1496.542	158.509	-316.668	1656.606	1192.062	-212.159	1664.221	1192.548	-317.016
	40	0.47500	1632.161	767.567	-257.683	1625.433	767.583	-200.651	1638.889	767.550	-314.715	1709.472	424.841	-166.389	1537.361	435.143	-288.624	1729.987	76.295	-164.195	1489.183	69.403	-262.903	1665.869	840.698	-254.399	1668.126	846.996	-144.098	1663.611	834.401	-364.701	1489.632	869.732	-215.904	1493.640	865.485	-268.950	1739.309	434.771	-106.839	1560.994	410.500	-345.935	1726.852	423.183	-223.190	1569.112	427.371	-229.071	1720.874	76.542	-127.821	1478.378	69.091	-297.766	1734.326	72.726	-197.561	1490.845	73.076	-229.635	1664.291	1191.555	-267.789	1673.794	1089.842	-270.341	1554.870	1261.590	-269.565	1811.116	64.996	-149.374	1573.827	45.687	-275.978	1802.749	607.167	-139.850	1687.298	548.436	-381.138	1739.728	624.054	-107.381	1681.219	598.801	-316.979	1748.432	566.954	-108.954	1662.842	543.623	-304.541	1844.153	199.995	-129.254	1488.098	163.003	-394.188	1770.398	183.062	-152.831	1497.613	158.990	-316.658	1663.015	1191.448	-211.871	1670.764	1192.201	-317.148
	41	0.48333	1638.249	767.062	-257.722	1631.428	767.068	-200.701	1645.070	767.055	-314.744	1714.971	424.509	-167.629	1543.133	433.599	-288.842	1750.525	75.879	-165.822	1489.544	69.796	-263.064	1672.122	840.137	-254.404	1674.232	846.351	-144.155	1670.012	833.923	-364.653	1495.746	869.483	-216.116	1500.031	865.202	-269.120	1745.839	434.450	-107.985	1563.781	410.592	-346.158	1732.167	423.450	-224.671	1574.699	424.463	-230.995	1741.365	75.724	-129.458	1478.621	69.587	-297.890	1754.763	73.032	-199.300	1490.882	73.351	-229.710	1670.737	1190.987	-267.924	1680.040	1089.256	-270.499	1561.691	1261.107	-270.018	1832.376	66.241	-151.186	1574.008	45.762	-276.150	1808.539	606.651	-140.231	1691.396	547.485	-381.382	1745.511	623.586	-107.445	1684.703	598.276	-316.318	1754.187	566.254	-109.459	1667.158	543.111	-304.726	1859.814	203.899	-130.561	1488.718	163.535	-394.295	1786.882	184.492	-153.969	1498.079	159.512	-316.458	1669.372	1190.861	-211.606	1677.295	1191.639	-317.678
